<mxfile host="app.diagrams.net" modified="2024-04-26T18:38:06.287Z" agent="Mozilla/5.0 (Windows NT 10.0; Win64; x64) AppleWebKit/537.36 (KHTML, like Gecko) Chrome/124.0.0.0 Safari/537.36" etag="dif42vozlQ2LCfnScVvy" version="24.2.7" type="github">
  <diagram name="PÃ¡gina-1" id="qSvi5F9lkOXJbr2jsmbP">
    <mxGraphModel dx="2546" dy="767" grid="1" gridSize="10" guides="1" tooltips="1" connect="1" arrows="1" fold="1" page="1" pageScale="1" pageWidth="827" pageHeight="1169" math="0" shadow="0">
      <root>
        <mxCell id="0" />
        <mxCell id="1" parent="0" />
        <mxCell id="05TPGGMZrsxs3I6yql6b-1" value="JUGADOR" style="whiteSpace=wrap;html=1;align=center;" vertex="1" parent="1">
          <mxGeometry x="-260" y="230" width="100" height="40" as="geometry" />
        </mxCell>
        <mxCell id="05TPGGMZrsxs3I6yql6b-2" value="posicion" style="ellipse;whiteSpace=wrap;html=1;align=center;" vertex="1" parent="1">
          <mxGeometry x="-130" y="210" width="100" height="40" as="geometry" />
        </mxCell>
        <mxCell id="05TPGGMZrsxs3I6yql6b-3" value="cod_jugador" style="ellipse;whiteSpace=wrap;html=1;align=center;fontStyle=4;" vertex="1" parent="1">
          <mxGeometry x="-180" y="160" width="100" height="40" as="geometry" />
        </mxCell>
        <mxCell id="05TPGGMZrsxs3I6yql6b-4" value="nombre_jugador" style="ellipse;whiteSpace=wrap;html=1;align=center;" vertex="1" parent="1">
          <mxGeometry x="-130" y="265" width="100" height="40" as="geometry" />
        </mxCell>
        <mxCell id="05TPGGMZrsxs3I6yql6b-5" value="fecha_nacimiento" style="ellipse;whiteSpace=wrap;html=1;align=center;" vertex="1" parent="1">
          <mxGeometry x="-310" y="160" width="100" height="40" as="geometry" />
        </mxCell>
        <mxCell id="05TPGGMZrsxs3I6yql6b-6" value="EQUIPO" style="whiteSpace=wrap;html=1;align=center;" vertex="1" parent="1">
          <mxGeometry x="-720" y="230" width="100" height="40" as="geometry" />
        </mxCell>
        <mxCell id="05TPGGMZrsxs3I6yql6b-7" value="nombre_estadio" style="ellipse;whiteSpace=wrap;html=1;align=center;" vertex="1" parent="1">
          <mxGeometry x="-700" y="110" width="100" height="40" as="geometry" />
        </mxCell>
        <mxCell id="05TPGGMZrsxs3I6yql6b-8" value="nombre_equipo" style="ellipse;whiteSpace=wrap;html=1;align=center;" vertex="1" parent="1">
          <mxGeometry x="-820" y="280" width="100" height="40" as="geometry" />
        </mxCell>
        <mxCell id="05TPGGMZrsxs3I6yql6b-9" value="cod_equipo" style="ellipse;whiteSpace=wrap;html=1;align=center;fontStyle=4;" vertex="1" parent="1">
          <mxGeometry x="-827" y="210" width="100" height="40" as="geometry" />
        </mxCell>
        <mxCell id="05TPGGMZrsxs3I6yql6b-10" value="PRESIDENTE" style="whiteSpace=wrap;html=1;align=center;" vertex="1" parent="1">
          <mxGeometry x="-720" y="480" width="100" height="40" as="geometry" />
        </mxCell>
        <mxCell id="05TPGGMZrsxs3I6yql6b-11" value="dni" style="ellipse;whiteSpace=wrap;html=1;align=center;fontStyle=4;" vertex="1" parent="1">
          <mxGeometry x="-600" y="480" width="100" height="40" as="geometry" />
        </mxCell>
        <mxCell id="05TPGGMZrsxs3I6yql6b-12" value="nombre_presi" style="ellipse;whiteSpace=wrap;html=1;align=center;" vertex="1" parent="1">
          <mxGeometry x="-827" y="480" width="100" height="40" as="geometry" />
        </mxCell>
        <mxCell id="05TPGGMZrsxs3I6yql6b-13" value="apellido_presi" style="ellipse;whiteSpace=wrap;html=1;align=center;" vertex="1" parent="1">
          <mxGeometry x="-810" y="550" width="100" height="40" as="geometry" />
        </mxCell>
        <mxCell id="05TPGGMZrsxs3I6yql6b-14" value="fecha_nac_presi" style="ellipse;whiteSpace=wrap;html=1;align=center;" vertex="1" parent="1">
          <mxGeometry x="-610" y="430" width="100" height="40" as="geometry" />
        </mxCell>
        <mxCell id="05TPGGMZrsxs3I6yql6b-15" value="equipo_presi" style="ellipse;whiteSpace=wrap;html=1;align=center;" vertex="1" parent="1">
          <mxGeometry x="-610" y="550" width="100" height="40" as="geometry" />
        </mxCell>
        <mxCell id="05TPGGMZrsxs3I6yql6b-16" value="" style="endArrow=none;html=1;rounded=0;exitX=1;exitY=0.5;exitDx=0;exitDy=0;entryX=0;entryY=0.5;entryDx=0;entryDy=0;" edge="1" parent="1" source="05TPGGMZrsxs3I6yql6b-12" target="05TPGGMZrsxs3I6yql6b-10">
          <mxGeometry relative="1" as="geometry">
            <mxPoint x="-770" y="420" as="sourcePoint" />
            <mxPoint x="-610" y="420" as="targetPoint" />
          </mxGeometry>
        </mxCell>
        <mxCell id="05TPGGMZrsxs3I6yql6b-17" value="" style="endArrow=none;html=1;rounded=0;exitX=1;exitY=0.5;exitDx=0;exitDy=0;entryX=0;entryY=0.5;entryDx=0;entryDy=0;" edge="1" parent="1" source="05TPGGMZrsxs3I6yql6b-10" target="05TPGGMZrsxs3I6yql6b-11">
          <mxGeometry relative="1" as="geometry">
            <mxPoint x="-640" y="610" as="sourcePoint" />
            <mxPoint x="-480" y="610" as="targetPoint" />
          </mxGeometry>
        </mxCell>
        <mxCell id="05TPGGMZrsxs3I6yql6b-18" value="" style="endArrow=none;html=1;rounded=0;exitX=1;exitY=0;exitDx=0;exitDy=0;entryX=0;entryY=1;entryDx=0;entryDy=0;" edge="1" parent="1" source="05TPGGMZrsxs3I6yql6b-13" target="05TPGGMZrsxs3I6yql6b-10">
          <mxGeometry relative="1" as="geometry">
            <mxPoint x="-860" y="660" as="sourcePoint" />
            <mxPoint x="-700" y="660" as="targetPoint" />
          </mxGeometry>
        </mxCell>
        <mxCell id="05TPGGMZrsxs3I6yql6b-19" value="" style="endArrow=none;html=1;rounded=0;exitX=0;exitY=0.5;exitDx=0;exitDy=0;entryX=1;entryY=0;entryDx=0;entryDy=0;" edge="1" parent="1" source="05TPGGMZrsxs3I6yql6b-14" target="05TPGGMZrsxs3I6yql6b-10">
          <mxGeometry relative="1" as="geometry">
            <mxPoint x="-780" y="590" as="sourcePoint" />
            <mxPoint x="-620" y="470" as="targetPoint" />
          </mxGeometry>
        </mxCell>
        <mxCell id="05TPGGMZrsxs3I6yql6b-20" value="" style="endArrow=none;html=1;rounded=0;exitX=1;exitY=1;exitDx=0;exitDy=0;entryX=0;entryY=0.5;entryDx=0;entryDy=0;" edge="1" parent="1" source="05TPGGMZrsxs3I6yql6b-10" target="05TPGGMZrsxs3I6yql6b-15">
          <mxGeometry relative="1" as="geometry">
            <mxPoint x="-650" y="640" as="sourcePoint" />
            <mxPoint x="-490" y="640" as="targetPoint" />
          </mxGeometry>
        </mxCell>
        <mxCell id="05TPGGMZrsxs3I6yql6b-21" value="" style="endArrow=none;html=1;rounded=0;exitX=0.5;exitY=1;exitDx=0;exitDy=0;entryX=0.5;entryY=0;entryDx=0;entryDy=0;" edge="1" parent="1" source="05TPGGMZrsxs3I6yql6b-7" target="05TPGGMZrsxs3I6yql6b-6">
          <mxGeometry relative="1" as="geometry">
            <mxPoint x="-750" y="390" as="sourcePoint" />
            <mxPoint x="-590" y="390" as="targetPoint" />
            <Array as="points" />
          </mxGeometry>
        </mxCell>
        <mxCell id="05TPGGMZrsxs3I6yql6b-23" value="" style="endArrow=none;html=1;rounded=0;exitX=0.5;exitY=0;exitDx=0;exitDy=0;entryX=0;entryY=1;entryDx=0;entryDy=0;" edge="1" parent="1" source="05TPGGMZrsxs3I6yql6b-8" target="05TPGGMZrsxs3I6yql6b-6">
          <mxGeometry relative="1" as="geometry">
            <mxPoint x="-810" y="610" as="sourcePoint" />
            <mxPoint x="-650" y="610" as="targetPoint" />
          </mxGeometry>
        </mxCell>
        <mxCell id="05TPGGMZrsxs3I6yql6b-24" value="" style="endArrow=none;html=1;rounded=0;exitX=1;exitY=0.5;exitDx=0;exitDy=0;entryX=0;entryY=0.5;entryDx=0;entryDy=0;" edge="1" parent="1" source="05TPGGMZrsxs3I6yql6b-9" target="05TPGGMZrsxs3I6yql6b-6">
          <mxGeometry relative="1" as="geometry">
            <mxPoint x="-740" y="370" as="sourcePoint" />
            <mxPoint x="-580" y="370" as="targetPoint" />
          </mxGeometry>
        </mxCell>
        <mxCell id="05TPGGMZrsxs3I6yql6b-25" value="" style="endArrow=none;html=1;rounded=0;exitX=0;exitY=0;exitDx=0;exitDy=0;entryX=1;entryY=0.75;entryDx=0;entryDy=0;" edge="1" parent="1" source="05TPGGMZrsxs3I6yql6b-4" target="05TPGGMZrsxs3I6yql6b-1">
          <mxGeometry relative="1" as="geometry">
            <mxPoint x="-210" y="390" as="sourcePoint" />
            <mxPoint x="-50" y="390" as="targetPoint" />
          </mxGeometry>
        </mxCell>
        <mxCell id="05TPGGMZrsxs3I6yql6b-26" value="" style="endArrow=none;html=1;rounded=0;exitX=0.5;exitY=1;exitDx=0;exitDy=0;entryX=0.25;entryY=0;entryDx=0;entryDy=0;" edge="1" parent="1" source="05TPGGMZrsxs3I6yql6b-5" target="05TPGGMZrsxs3I6yql6b-1">
          <mxGeometry relative="1" as="geometry">
            <mxPoint x="-250" y="400" as="sourcePoint" />
            <mxPoint x="-90" y="400" as="targetPoint" />
          </mxGeometry>
        </mxCell>
        <mxCell id="05TPGGMZrsxs3I6yql6b-27" value="" style="endArrow=none;html=1;rounded=0;exitX=0.5;exitY=1;exitDx=0;exitDy=0;entryX=1;entryY=0;entryDx=0;entryDy=0;" edge="1" parent="1" source="05TPGGMZrsxs3I6yql6b-3" target="05TPGGMZrsxs3I6yql6b-1">
          <mxGeometry relative="1" as="geometry">
            <mxPoint x="-240" y="400" as="sourcePoint" />
            <mxPoint x="-80" y="400" as="targetPoint" />
          </mxGeometry>
        </mxCell>
        <mxCell id="05TPGGMZrsxs3I6yql6b-28" value="" style="endArrow=none;html=1;rounded=0;exitX=1;exitY=0.25;exitDx=0;exitDy=0;entryX=0;entryY=0.5;entryDx=0;entryDy=0;" edge="1" parent="1" source="05TPGGMZrsxs3I6yql6b-1" target="05TPGGMZrsxs3I6yql6b-2">
          <mxGeometry relative="1" as="geometry">
            <mxPoint x="-200" y="380" as="sourcePoint" />
            <mxPoint x="-40" y="380" as="targetPoint" />
          </mxGeometry>
        </mxCell>
        <mxCell id="05TPGGMZrsxs3I6yql6b-29" value="PARTIDO" style="whiteSpace=wrap;html=1;align=center;" vertex="1" parent="1">
          <mxGeometry x="-490" y="610" width="100" height="40" as="geometry" />
        </mxCell>
        <mxCell id="05TPGGMZrsxs3I6yql6b-30" value="fecha_fund_equ" style="ellipse;whiteSpace=wrap;html=1;align=center;" vertex="1" parent="1">
          <mxGeometry x="-770" y="30" width="100" height="40" as="geometry" />
        </mxCell>
        <mxCell id="05TPGGMZrsxs3I6yql6b-31" value="aforo_estadio" style="ellipse;whiteSpace=wrap;html=1;align=center;" vertex="1" parent="1">
          <mxGeometry x="-610" y="180" width="100" height="40" as="geometry" />
        </mxCell>
        <mxCell id="05TPGGMZrsxs3I6yql6b-32" value="" style="endArrow=none;html=1;rounded=0;exitX=0.327;exitY=-0.033;exitDx=0;exitDy=0;entryX=0.5;entryY=1;entryDx=0;entryDy=0;exitPerimeter=0;" edge="1" parent="1" source="05TPGGMZrsxs3I6yql6b-6" target="05TPGGMZrsxs3I6yql6b-30">
          <mxGeometry relative="1" as="geometry">
            <mxPoint x="-740" y="380" as="sourcePoint" />
            <mxPoint x="-580" y="380" as="targetPoint" />
          </mxGeometry>
        </mxCell>
        <mxCell id="05TPGGMZrsxs3I6yql6b-33" value="" style="endArrow=none;html=1;rounded=0;exitX=1;exitY=0;exitDx=0;exitDy=0;entryX=0;entryY=0.5;entryDx=0;entryDy=0;" edge="1" parent="1" source="05TPGGMZrsxs3I6yql6b-6" target="05TPGGMZrsxs3I6yql6b-31">
          <mxGeometry relative="1" as="geometry">
            <mxPoint x="-550" y="270" as="sourcePoint" />
            <mxPoint x="-580" y="220" as="targetPoint" />
          </mxGeometry>
        </mxCell>
        <mxCell id="05TPGGMZrsxs3I6yql6b-34" value="ciudad" style="ellipse;whiteSpace=wrap;html=1;align=center;" vertex="1" parent="1">
          <mxGeometry x="-820" y="140" width="100" height="40" as="geometry" />
        </mxCell>
        <mxCell id="05TPGGMZrsxs3I6yql6b-35" value="" style="endArrow=none;html=1;rounded=0;exitX=0.5;exitY=1;exitDx=0;exitDy=0;entryX=0.25;entryY=0;entryDx=0;entryDy=0;" edge="1" parent="1" source="05TPGGMZrsxs3I6yql6b-34" target="05TPGGMZrsxs3I6yql6b-6">
          <mxGeometry relative="1" as="geometry">
            <mxPoint x="-780" y="390" as="sourcePoint" />
            <mxPoint x="-620" y="390" as="targetPoint" />
          </mxGeometry>
        </mxCell>
        <mxCell id="05TPGGMZrsxs3I6yql6b-36" value="cod_partido" style="ellipse;whiteSpace=wrap;html=1;align=center;fontStyle=4;" vertex="1" parent="1">
          <mxGeometry x="-620" y="680" width="100" height="40" as="geometry" />
        </mxCell>
        <mxCell id="05TPGGMZrsxs3I6yql6b-37" value="fecha_partido" style="ellipse;whiteSpace=wrap;html=1;align=center;" vertex="1" parent="1">
          <mxGeometry x="-510" y="700" width="100" height="40" as="geometry" />
        </mxCell>
        <mxCell id="05TPGGMZrsxs3I6yql6b-38" value="gol_anotado_visi" style="ellipse;whiteSpace=wrap;html=1;align=center;" vertex="1" parent="1">
          <mxGeometry x="-390" y="680" width="100" height="40" as="geometry" />
        </mxCell>
        <mxCell id="05TPGGMZrsxs3I6yql6b-39" value="gol_anotado_casa" style="ellipse;whiteSpace=wrap;html=1;align=center;" vertex="1" parent="1">
          <mxGeometry x="-630" y="620" width="100" height="40" as="geometry" />
        </mxCell>
        <mxCell id="05TPGGMZrsxs3I6yql6b-40" value="GOL" style="whiteSpace=wrap;html=1;align=center;" vertex="1" parent="1">
          <mxGeometry x="-260" y="390" width="100" height="40" as="geometry" />
        </mxCell>
        <mxCell id="05TPGGMZrsxs3I6yql6b-41" value="id_gol" style="ellipse;whiteSpace=wrap;html=1;align=center;fontStyle=4;" vertex="1" parent="1">
          <mxGeometry x="-130" y="410" width="100" height="40" as="geometry" />
        </mxCell>
        <mxCell id="05TPGGMZrsxs3I6yql6b-42" value="minuto" style="ellipse;whiteSpace=wrap;html=1;align=center;" vertex="1" parent="1">
          <mxGeometry x="-140" y="340" width="100" height="40" as="geometry" />
        </mxCell>
        <mxCell id="05TPGGMZrsxs3I6yql6b-43" value="descripciÃ³n" style="ellipse;whiteSpace=wrap;html=1;align=center;" vertex="1" parent="1">
          <mxGeometry x="-140" y="490" width="100" height="40" as="geometry" />
        </mxCell>
        <mxCell id="05TPGGMZrsxs3I6yql6b-44" value="LIGA" style="whiteSpace=wrap;html=1;align=center;" vertex="1" parent="1">
          <mxGeometry x="-490" y="30" width="100" height="40" as="geometry" />
        </mxCell>
        <mxCell id="05TPGGMZrsxs3I6yql6b-45" value="cod_liga" style="ellipse;whiteSpace=wrap;html=1;align=center;fontStyle=4;" vertex="1" parent="1">
          <mxGeometry x="-640" y="30" width="100" height="40" as="geometry" />
        </mxCell>
        <mxCell id="05TPGGMZrsxs3I6yql6b-46" value="presidente" style="ellipse;whiteSpace=wrap;html=1;align=center;" vertex="1" parent="1">
          <mxGeometry x="-600" y="80" width="100" height="40" as="geometry" />
        </mxCell>
        <mxCell id="05TPGGMZrsxs3I6yql6b-47" value="aÃ±o_elegido" style="ellipse;whiteSpace=wrap;html=1;align=center;" vertex="1" parent="1">
          <mxGeometry x="-810" y="400" width="100" height="40" as="geometry" />
        </mxCell>
        <mxCell id="05TPGGMZrsxs3I6yql6b-48" value="" style="endArrow=none;html=1;rounded=0;exitX=1;exitY=1;exitDx=0;exitDy=0;entryX=0;entryY=0;entryDx=0;entryDy=0;" edge="1" parent="1" source="05TPGGMZrsxs3I6yql6b-47" target="05TPGGMZrsxs3I6yql6b-10">
          <mxGeometry relative="1" as="geometry">
            <mxPoint x="-820" y="640" as="sourcePoint" />
            <mxPoint x="-660" y="640" as="targetPoint" />
          </mxGeometry>
        </mxCell>
        <mxCell id="05TPGGMZrsxs3I6yql6b-49" value="equipos" style="ellipse;whiteSpace=wrap;html=1;align=center;" vertex="1" parent="1">
          <mxGeometry x="-360" y="20" width="100" height="40" as="geometry" />
        </mxCell>
        <mxCell id="05TPGGMZrsxs3I6yql6b-50" value="" style="endArrow=none;html=1;rounded=0;exitX=1;exitY=0.25;exitDx=0;exitDy=0;entryX=0;entryY=0.5;entryDx=0;entryDy=0;" edge="1" parent="1" source="05TPGGMZrsxs3I6yql6b-44" target="05TPGGMZrsxs3I6yql6b-49">
          <mxGeometry relative="1" as="geometry">
            <mxPoint x="-330" y="90" as="sourcePoint" />
            <mxPoint x="-170" y="90" as="targetPoint" />
          </mxGeometry>
        </mxCell>
        <mxCell id="05TPGGMZrsxs3I6yql6b-51" value="" style="endArrow=none;html=1;rounded=0;exitX=1;exitY=0.5;exitDx=0;exitDy=0;entryX=0;entryY=0.5;entryDx=0;entryDy=0;" edge="1" parent="1" source="05TPGGMZrsxs3I6yql6b-45" target="05TPGGMZrsxs3I6yql6b-44">
          <mxGeometry relative="1" as="geometry">
            <mxPoint x="-420" y="210" as="sourcePoint" />
            <mxPoint x="-260" y="210" as="targetPoint" />
          </mxGeometry>
        </mxCell>
        <mxCell id="05TPGGMZrsxs3I6yql6b-52" value="" style="endArrow=none;html=1;rounded=0;exitX=0;exitY=1;exitDx=0;exitDy=0;entryX=0.5;entryY=0;entryDx=0;entryDy=0;" edge="1" parent="1" source="05TPGGMZrsxs3I6yql6b-44" target="05TPGGMZrsxs3I6yql6b-46">
          <mxGeometry relative="1" as="geometry">
            <mxPoint x="-440" y="170" as="sourcePoint" />
            <mxPoint x="-280" y="170" as="targetPoint" />
          </mxGeometry>
        </mxCell>
        <mxCell id="05TPGGMZrsxs3I6yql6b-53" value="partidos" style="ellipse;whiteSpace=wrap;html=1;align=center;" vertex="1" parent="1">
          <mxGeometry x="-360" y="70" width="100" height="40" as="geometry" />
        </mxCell>
        <mxCell id="05TPGGMZrsxs3I6yql6b-54" value="" style="endArrow=none;html=1;rounded=0;exitX=1;exitY=1;exitDx=0;exitDy=0;entryX=0;entryY=0;entryDx=0;entryDy=0;" edge="1" parent="1" source="05TPGGMZrsxs3I6yql6b-44" target="05TPGGMZrsxs3I6yql6b-53">
          <mxGeometry relative="1" as="geometry">
            <mxPoint x="-450" y="130" as="sourcePoint" />
            <mxPoint x="-290" y="130" as="targetPoint" />
          </mxGeometry>
        </mxCell>
        <mxCell id="05TPGGMZrsxs3I6yql6b-55" value="" style="endArrow=none;html=1;rounded=0;exitX=0.5;exitY=1;exitDx=0;exitDy=0;" edge="1" parent="1" source="05TPGGMZrsxs3I6yql6b-44">
          <mxGeometry relative="1" as="geometry">
            <mxPoint x="-470" y="190" as="sourcePoint" />
            <mxPoint x="-440" y="140" as="targetPoint" />
          </mxGeometry>
        </mxCell>
        <mxCell id="05TPGGMZrsxs3I6yql6b-58" value="TIENE" style="shape=rhombus;perimeter=rhombusPerimeter;whiteSpace=wrap;html=1;align=center;" vertex="1" parent="1">
          <mxGeometry x="-500" y="140" width="120" height="60" as="geometry" />
        </mxCell>
        <mxCell id="05TPGGMZrsxs3I6yql6b-59" value="" style="endArrow=none;html=1;rounded=0;exitX=0.5;exitY=0;exitDx=0;exitDy=0;entryX=0;entryY=0.5;entryDx=0;entryDy=0;" edge="1" parent="1" source="05TPGGMZrsxs3I6yql6b-6" target="05TPGGMZrsxs3I6yql6b-58">
          <mxGeometry relative="1" as="geometry">
            <mxPoint x="-390" y="350" as="sourcePoint" />
            <mxPoint x="-230" y="350" as="targetPoint" />
            <Array as="points">
              <mxPoint x="-620" y="160" />
            </Array>
          </mxGeometry>
        </mxCell>
        <mxCell id="05TPGGMZrsxs3I6yql6b-60" value="(1:N)" style="text;strokeColor=none;align=center;fillColor=none;html=1;verticalAlign=middle;whiteSpace=wrap;rounded=0;" vertex="1" parent="1">
          <mxGeometry x="-500" y="120" width="60" height="30" as="geometry" />
        </mxCell>
        <mxCell id="05TPGGMZrsxs3I6yql6b-61" value="(1:1)" style="text;strokeColor=none;align=center;fillColor=none;html=1;verticalAlign=middle;whiteSpace=wrap;rounded=0;" vertex="1" parent="1">
          <mxGeometry x="-490" y="70" width="60" height="30" as="geometry" />
        </mxCell>
        <mxCell id="05TPGGMZrsxs3I6yql6b-62" value="(1:1)" style="text;strokeColor=none;align=center;fillColor=none;html=1;verticalAlign=middle;whiteSpace=wrap;rounded=0;" vertex="1" parent="1">
          <mxGeometry x="-720" y="270" width="60" height="30" as="geometry" />
        </mxCell>
        <mxCell id="05TPGGMZrsxs3I6yql6b-64" value="PRESIDIDO" style="shape=rhombus;perimeter=rhombusPerimeter;whiteSpace=wrap;html=1;align=center;" vertex="1" parent="1">
          <mxGeometry x="-730" y="330" width="120" height="60" as="geometry" />
        </mxCell>
        <mxCell id="05TPGGMZrsxs3I6yql6b-65" value="" style="endArrow=none;html=1;rounded=0;entryX=0.5;entryY=1;entryDx=0;entryDy=0;exitX=0.5;exitY=0;exitDx=0;exitDy=0;" edge="1" parent="1" target="05TPGGMZrsxs3I6yql6b-64" source="05TPGGMZrsxs3I6yql6b-10">
          <mxGeometry relative="1" as="geometry">
            <mxPoint x="-680" y="460" as="sourcePoint" />
            <mxPoint x="-610" y="410" as="targetPoint" />
          </mxGeometry>
        </mxCell>
        <mxCell id="05TPGGMZrsxs3I6yql6b-66" value="(1:1)" style="text;strokeColor=none;align=center;fillColor=none;html=1;verticalAlign=middle;whiteSpace=wrap;rounded=0;" vertex="1" parent="1">
          <mxGeometry x="-780" y="340" width="60" height="30" as="geometry" />
        </mxCell>
        <mxCell id="05TPGGMZrsxs3I6yql6b-67" value="(1:1)" style="text;strokeColor=none;align=center;fillColor=none;html=1;verticalAlign=middle;whiteSpace=wrap;rounded=0;" vertex="1" parent="1">
          <mxGeometry x="-620" y="370" width="60" height="30" as="geometry" />
        </mxCell>
        <mxCell id="05TPGGMZrsxs3I6yql6b-68" value="" style="endArrow=none;html=1;rounded=0;exitX=0.5;exitY=1;exitDx=0;exitDy=0;entryX=0.5;entryY=0;entryDx=0;entryDy=0;" edge="1" parent="1" source="05TPGGMZrsxs3I6yql6b-6" target="05TPGGMZrsxs3I6yql6b-64">
          <mxGeometry relative="1" as="geometry">
            <mxPoint x="-910" y="280" as="sourcePoint" />
            <mxPoint x="-820" y="520" as="targetPoint" />
          </mxGeometry>
        </mxCell>
        <mxCell id="05TPGGMZrsxs3I6yql6b-75" value="(1:1)" style="text;strokeColor=none;align=center;fillColor=none;html=1;verticalAlign=middle;whiteSpace=wrap;rounded=0;" vertex="1" parent="1">
          <mxGeometry x="-720" y="450" width="60" height="30" as="geometry" />
        </mxCell>
        <mxCell id="05TPGGMZrsxs3I6yql6b-76" value="JUEGA" style="shape=rhombus;perimeter=rhombusPerimeter;whiteSpace=wrap;html=1;align=center;" vertex="1" parent="1">
          <mxGeometry x="-500" y="360" width="120" height="60" as="geometry" />
        </mxCell>
        <mxCell id="05TPGGMZrsxs3I6yql6b-77" value="" style="endArrow=none;html=1;rounded=0;exitX=0.75;exitY=1;exitDx=0;exitDy=0;entryX=0;entryY=0.5;entryDx=0;entryDy=0;" edge="1" parent="1" source="05TPGGMZrsxs3I6yql6b-6" target="05TPGGMZrsxs3I6yql6b-76">
          <mxGeometry relative="1" as="geometry">
            <mxPoint x="-620" y="320" as="sourcePoint" />
            <mxPoint x="-460" y="320" as="targetPoint" />
          </mxGeometry>
        </mxCell>
        <mxCell id="05TPGGMZrsxs3I6yql6b-78" value="" style="endArrow=none;html=1;rounded=0;exitX=0.5;exitY=1;exitDx=0;exitDy=0;entryX=0.5;entryY=0;entryDx=0;entryDy=0;" edge="1" parent="1" source="05TPGGMZrsxs3I6yql6b-76" target="05TPGGMZrsxs3I6yql6b-29">
          <mxGeometry relative="1" as="geometry">
            <mxPoint x="-440" y="450" as="sourcePoint" />
            <mxPoint x="-440" y="550" as="targetPoint" />
          </mxGeometry>
        </mxCell>
        <mxCell id="05TPGGMZrsxs3I6yql6b-79" value="(1:N)" style="text;strokeColor=none;align=center;fillColor=none;html=1;verticalAlign=middle;whiteSpace=wrap;rounded=0;" vertex="1" parent="1">
          <mxGeometry x="-490" y="580" width="60" height="30" as="geometry" />
        </mxCell>
        <mxCell id="05TPGGMZrsxs3I6yql6b-80" value="(1:N)" style="text;strokeColor=none;align=center;fillColor=none;html=1;verticalAlign=middle;whiteSpace=wrap;rounded=0;" vertex="1" parent="1">
          <mxGeometry x="-660" y="285" width="60" height="30" as="geometry" />
        </mxCell>
        <mxCell id="05TPGGMZrsxs3I6yql6b-81" value="(N:N)" style="text;strokeColor=none;align=center;fillColor=none;html=1;verticalAlign=middle;whiteSpace=wrap;rounded=0;" vertex="1" parent="1">
          <mxGeometry x="-510" y="345" width="60" height="30" as="geometry" />
        </mxCell>
        <mxCell id="05TPGGMZrsxs3I6yql6b-83" value="" style="endArrow=none;html=1;rounded=0;exitX=1;exitY=0.5;exitDx=0;exitDy=0;entryX=0;entryY=0.5;entryDx=0;entryDy=0;" edge="1" parent="1" source="05TPGGMZrsxs3I6yql6b-6" target="05TPGGMZrsxs3I6yql6b-84">
          <mxGeometry relative="1" as="geometry">
            <mxPoint x="-560" y="250" as="sourcePoint" />
            <mxPoint x="-510" y="250" as="targetPoint" />
          </mxGeometry>
        </mxCell>
        <mxCell id="05TPGGMZrsxs3I6yql6b-84" value="CONFORMADO" style="shape=rhombus;perimeter=rhombusPerimeter;whiteSpace=wrap;html=1;align=center;" vertex="1" parent="1">
          <mxGeometry x="-500" y="220" width="120" height="60" as="geometry" />
        </mxCell>
        <mxCell id="05TPGGMZrsxs3I6yql6b-85" value="" style="endArrow=none;html=1;rounded=0;exitX=1;exitY=0.5;exitDx=0;exitDy=0;entryX=0;entryY=0.5;entryDx=0;entryDy=0;" edge="1" parent="1" source="05TPGGMZrsxs3I6yql6b-84" target="05TPGGMZrsxs3I6yql6b-1">
          <mxGeometry relative="1" as="geometry">
            <mxPoint x="-370" y="350" as="sourcePoint" />
            <mxPoint x="-270" y="250" as="targetPoint" />
          </mxGeometry>
        </mxCell>
        <mxCell id="05TPGGMZrsxs3I6yql6b-86" value="(1:1)" style="text;strokeColor=none;align=center;fillColor=none;html=1;verticalAlign=middle;whiteSpace=wrap;rounded=0;" vertex="1" parent="1">
          <mxGeometry x="-630" y="220" width="60" height="30" as="geometry" />
        </mxCell>
        <mxCell id="05TPGGMZrsxs3I6yql6b-87" value="(N:N)" style="text;strokeColor=none;align=center;fillColor=none;html=1;verticalAlign=middle;whiteSpace=wrap;rounded=0;" vertex="1" parent="1">
          <mxGeometry x="-310" y="220" width="60" height="30" as="geometry" />
        </mxCell>
        <mxCell id="05TPGGMZrsxs3I6yql6b-88" value="(1:N)" style="text;strokeColor=none;align=center;fillColor=none;html=1;verticalAlign=middle;whiteSpace=wrap;rounded=0;" vertex="1" parent="1">
          <mxGeometry x="-443" y="200" width="60" height="30" as="geometry" />
        </mxCell>
        <mxCell id="05TPGGMZrsxs3I6yql6b-89" value="ANOTA" style="shape=rhombus;perimeter=rhombusPerimeter;whiteSpace=wrap;html=1;align=center;" vertex="1" parent="1">
          <mxGeometry x="-270" y="300" width="120" height="60" as="geometry" />
        </mxCell>
        <mxCell id="05TPGGMZrsxs3I6yql6b-90" value="" style="endArrow=none;html=1;rounded=0;exitX=0.5;exitY=1;exitDx=0;exitDy=0;entryX=0.5;entryY=0;entryDx=0;entryDy=0;" edge="1" parent="1" source="05TPGGMZrsxs3I6yql6b-1" target="05TPGGMZrsxs3I6yql6b-89">
          <mxGeometry relative="1" as="geometry">
            <mxPoint x="-210" y="530" as="sourcePoint" />
            <mxPoint x="-50" y="530" as="targetPoint" />
          </mxGeometry>
        </mxCell>
        <mxCell id="05TPGGMZrsxs3I6yql6b-91" value="" style="endArrow=none;html=1;rounded=0;exitX=0.5;exitY=1;exitDx=0;exitDy=0;entryX=0.5;entryY=0;entryDx=0;entryDy=0;" edge="1" parent="1" source="05TPGGMZrsxs3I6yql6b-89" target="05TPGGMZrsxs3I6yql6b-40">
          <mxGeometry relative="1" as="geometry">
            <mxPoint x="-270" y="590" as="sourcePoint" />
            <mxPoint x="-110" y="590" as="targetPoint" />
          </mxGeometry>
        </mxCell>
        <mxCell id="05TPGGMZrsxs3I6yql6b-92" value="" style="endArrow=none;html=1;rounded=0;exitX=1;exitY=0;exitDx=0;exitDy=0;entryX=0;entryY=0.5;entryDx=0;entryDy=0;" edge="1" parent="1" source="05TPGGMZrsxs3I6yql6b-40" target="05TPGGMZrsxs3I6yql6b-42">
          <mxGeometry relative="1" as="geometry">
            <mxPoint x="-240" y="470" as="sourcePoint" />
            <mxPoint x="-80" y="470" as="targetPoint" />
          </mxGeometry>
        </mxCell>
        <mxCell id="05TPGGMZrsxs3I6yql6b-93" value="" style="endArrow=none;html=1;rounded=0;entryX=0;entryY=0.5;entryDx=0;entryDy=0;exitX=1;exitY=0.5;exitDx=0;exitDy=0;" edge="1" parent="1" source="05TPGGMZrsxs3I6yql6b-40" target="05TPGGMZrsxs3I6yql6b-41">
          <mxGeometry relative="1" as="geometry">
            <mxPoint x="-180" y="450" as="sourcePoint" />
            <mxPoint x="-160" y="500" as="targetPoint" />
          </mxGeometry>
        </mxCell>
        <mxCell id="05TPGGMZrsxs3I6yql6b-94" value="" style="endArrow=none;html=1;rounded=0;entryX=0;entryY=0;entryDx=0;entryDy=0;exitX=1;exitY=1;exitDx=0;exitDy=0;" edge="1" parent="1" source="05TPGGMZrsxs3I6yql6b-40" target="05TPGGMZrsxs3I6yql6b-43">
          <mxGeometry relative="1" as="geometry">
            <mxPoint x="-300" y="480" as="sourcePoint" />
            <mxPoint x="-140" y="480" as="targetPoint" />
          </mxGeometry>
        </mxCell>
        <mxCell id="05TPGGMZrsxs3I6yql6b-95" value="" style="endArrow=none;html=1;rounded=0;exitX=1;exitY=0.5;exitDx=0;exitDy=0;" edge="1" parent="1" source="05TPGGMZrsxs3I6yql6b-39">
          <mxGeometry relative="1" as="geometry">
            <mxPoint x="-420" y="520" as="sourcePoint" />
            <mxPoint x="-490" y="620" as="targetPoint" />
          </mxGeometry>
        </mxCell>
        <mxCell id="05TPGGMZrsxs3I6yql6b-96" value="" style="endArrow=none;html=1;rounded=0;exitX=0;exitY=1;exitDx=0;exitDy=0;entryX=1;entryY=0;entryDx=0;entryDy=0;" edge="1" parent="1" source="05TPGGMZrsxs3I6yql6b-29" target="05TPGGMZrsxs3I6yql6b-36">
          <mxGeometry relative="1" as="geometry">
            <mxPoint x="-530" y="730" as="sourcePoint" />
            <mxPoint x="-370" y="730" as="targetPoint" />
          </mxGeometry>
        </mxCell>
        <mxCell id="05TPGGMZrsxs3I6yql6b-97" value="" style="endArrow=none;html=1;rounded=0;exitX=0.25;exitY=1;exitDx=0;exitDy=0;entryX=0.5;entryY=0;entryDx=0;entryDy=0;" edge="1" parent="1" source="05TPGGMZrsxs3I6yql6b-29" target="05TPGGMZrsxs3I6yql6b-37">
          <mxGeometry relative="1" as="geometry">
            <mxPoint x="-470" y="780" as="sourcePoint" />
            <mxPoint x="-310" y="780" as="targetPoint" />
            <Array as="points" />
          </mxGeometry>
        </mxCell>
        <mxCell id="05TPGGMZrsxs3I6yql6b-98" value="" style="endArrow=none;html=1;rounded=0;exitX=0.75;exitY=1;exitDx=0;exitDy=0;entryX=0;entryY=0;entryDx=0;entryDy=0;" edge="1" parent="1" source="05TPGGMZrsxs3I6yql6b-29" target="05TPGGMZrsxs3I6yql6b-38">
          <mxGeometry relative="1" as="geometry">
            <mxPoint x="-420" y="760" as="sourcePoint" />
            <mxPoint x="-260" y="760" as="targetPoint" />
          </mxGeometry>
        </mxCell>
        <mxCell id="05TPGGMZrsxs3I6yql6b-99" value="TIENE" style="shape=rhombus;perimeter=rhombusPerimeter;whiteSpace=wrap;html=1;align=center;" vertex="1" parent="1">
          <mxGeometry x="-360" y="490" width="120" height="60" as="geometry" />
        </mxCell>
        <mxCell id="05TPGGMZrsxs3I6yql6b-100" value="" style="endArrow=none;html=1;rounded=0;exitX=1;exitY=0.25;exitDx=0;exitDy=0;entryX=0;entryY=1;entryDx=0;entryDy=0;" edge="1" parent="1" source="05TPGGMZrsxs3I6yql6b-29" target="05TPGGMZrsxs3I6yql6b-99">
          <mxGeometry relative="1" as="geometry">
            <mxPoint x="-300" y="660" as="sourcePoint" />
            <mxPoint x="-140" y="660" as="targetPoint" />
          </mxGeometry>
        </mxCell>
        <mxCell id="05TPGGMZrsxs3I6yql6b-101" value="" style="endArrow=none;html=1;rounded=0;exitX=0;exitY=1;exitDx=0;exitDy=0;entryX=0.589;entryY=0.067;entryDx=0;entryDy=0;entryPerimeter=0;" edge="1" parent="1" source="05TPGGMZrsxs3I6yql6b-40" target="05TPGGMZrsxs3I6yql6b-99">
          <mxGeometry relative="1" as="geometry">
            <mxPoint x="-270" y="640" as="sourcePoint" />
            <mxPoint x="-110" y="640" as="targetPoint" />
          </mxGeometry>
        </mxCell>
        <mxCell id="05TPGGMZrsxs3I6yql6b-102" value="(1:N)" style="text;strokeColor=none;align=center;fillColor=none;html=1;verticalAlign=middle;whiteSpace=wrap;rounded=0;" vertex="1" parent="1">
          <mxGeometry x="-370" y="480" width="60" height="30" as="geometry" />
        </mxCell>
        <mxCell id="05TPGGMZrsxs3I6yql6b-103" value="(1:1)" style="text;strokeColor=none;align=center;fillColor=none;html=1;verticalAlign=middle;whiteSpace=wrap;rounded=0;" vertex="1" parent="1">
          <mxGeometry x="-310" y="415" width="60" height="30" as="geometry" />
        </mxCell>
        <mxCell id="05TPGGMZrsxs3I6yql6b-104" value="(1:N)" style="text;strokeColor=none;align=center;fillColor=none;html=1;verticalAlign=middle;whiteSpace=wrap;rounded=0;" vertex="1" parent="1">
          <mxGeometry x="-420" y="590" width="60" height="30" as="geometry" />
        </mxCell>
      </root>
    </mxGraphModel>
  </diagram>
</mxfile>
